<mxfile host="app.diagrams.net" modified="2024-01-02T22:27:11.217Z" agent="Mozilla/5.0 (Windows NT 10.0; Win64; x64) AppleWebKit/537.36 (KHTML, like Gecko) Chrome/120.0.0.0 Safari/537.36" etag="MHJkoS-Koi774-Eko33b" version="22.1.15" type="github">
  <diagram name="第 1 页" id="BJzrbpR1AHi4dkEu57Z8">
    <mxGraphModel dx="1221" dy="626" grid="1" gridSize="10" guides="1" tooltips="1" connect="1" arrows="1" fold="1" page="1" pageScale="1" pageWidth="827" pageHeight="1169" math="0" shadow="0">
      <root>
        <mxCell id="0" />
        <mxCell id="1" parent="0" />
        <mxCell id="tn0RwNQdPcTWAIQhvf7o-1" value="愤怒" style="rounded=0;whiteSpace=wrap;html=1;" vertex="1" parent="1">
          <mxGeometry x="210" y="90" width="120" height="60" as="geometry" />
        </mxCell>
        <mxCell id="tn0RwNQdPcTWAIQhvf7o-2" value="平淡" style="rounded=0;whiteSpace=wrap;html=1;" vertex="1" parent="1">
          <mxGeometry x="20" y="290" width="120" height="60" as="geometry" />
        </mxCell>
        <mxCell id="tn0RwNQdPcTWAIQhvf7o-3" value="波动" style="rounded=0;whiteSpace=wrap;html=1;" vertex="1" parent="1">
          <mxGeometry x="20" y="90" width="120" height="60" as="geometry" />
        </mxCell>
        <mxCell id="tn0RwNQdPcTWAIQhvf7o-4" value="嫉妒" style="rounded=0;whiteSpace=wrap;html=1;" vertex="1" parent="1">
          <mxGeometry x="350" y="90" width="120" height="60" as="geometry" />
        </mxCell>
        <mxCell id="tn0RwNQdPcTWAIQhvf7o-5" value="委屈" style="rounded=0;whiteSpace=wrap;html=1;" vertex="1" parent="1">
          <mxGeometry x="500" y="90" width="120" height="60" as="geometry" />
        </mxCell>
        <mxCell id="tn0RwNQdPcTWAIQhvf7o-6" value="悲伤" style="rounded=0;whiteSpace=wrap;html=1;" vertex="1" parent="1">
          <mxGeometry x="640" y="90" width="120" height="60" as="geometry" />
        </mxCell>
        <mxCell id="tn0RwNQdPcTWAIQhvf7o-7" value="感动" style="rounded=0;whiteSpace=wrap;html=1;" vertex="1" parent="1">
          <mxGeometry x="210" y="170" width="120" height="60" as="geometry" />
        </mxCell>
        <mxCell id="tn0RwNQdPcTWAIQhvf7o-8" value="无聊" style="rounded=0;whiteSpace=wrap;html=1;" vertex="1" parent="1">
          <mxGeometry x="210" y="290" width="120" height="60" as="geometry" />
        </mxCell>
        <mxCell id="tn0RwNQdPcTWAIQhvf7o-9" value="恐惧" style="rounded=0;whiteSpace=wrap;html=1;" vertex="1" parent="1">
          <mxGeometry x="350" y="170" width="120" height="60" as="geometry" />
        </mxCell>
        <mxCell id="tn0RwNQdPcTWAIQhvf7o-10" value="激动" style="rounded=0;whiteSpace=wrap;html=1;" vertex="1" parent="1">
          <mxGeometry x="20" y="160" width="120" height="60" as="geometry" />
        </mxCell>
      </root>
    </mxGraphModel>
  </diagram>
</mxfile>
